# Simplified collision shell derived from the supplied 3D point cloud
# Coordinates are metres. Gazebo scale is 1 1 1.
v -3.8349 10.8142 0.0000
v -3.8349 11.1142 0.0000
v -1.8349 11.1142 0.0000
v -1.9349 10.8142 0.0000
v -3.8349 10.8142 2.5000
v -3.8349 11.1142 2.5000
v -1.8349 11.1142 2.5000
v -1.9349 10.8142 2.5000
v -1.3349 8.9142 0.0000
v -1.3349 9.5142 0.0000
v -1.1349 9.5142 0.0000
v -1.1349 8.9142 0.0000
v -1.3349 8.9142 2.5000
v -1.3349 9.5142 2.5000
v -1.1349 9.5142 2.5000
v -1.1349 8.9142 2.5000
v 7.2651 6.4142 0.0000
v 6.0651 6.5142 0.0000
v 6.0651 6.7142 0.0000
v 6.9651 6.8142 0.0000
v 7.2651 6.4142 2.5000
v 6.0651 6.5142 2.5000
v 6.0651 6.7142 2.5000
v 6.9651 6.8142 2.5000
v 11.9651 3.7142 0.0000
v 12.0651 4.2142 0.0000
v 12.3651 4.3142 0.0000
v 12.1651 3.7142 0.0000
v 11.9651 3.7142 2.5000
v 12.0651 4.2142 2.5000
v 12.3651 4.3142 2.5000
v 12.1651 3.7142 2.5000
v 11.1651 2.5142 0.0000
v 11.5651 3.1142 0.0000
v 11.5651 3.4142 0.0000
v 11.7651 3.4142 0.0000
v 11.4651 2.6142 0.0000
v 11.1651 2.5142 2.5000
v 11.5651 3.1142 2.5000
v 11.5651 3.4142 2.5000
v 11.7651 3.4142 2.5000
v 11.4651 2.6142 2.5000
v 19.7651 -1.1858 0.0000
v 16.6651 -1.2858 0.0000
v 16.5651 -4.8858 0.0000
v 16.1651 -5.0858 0.0000
v 16.1651 -5.3858 0.0000
v 14.4651 -5.3858 0.0000
v 14.2651 -4.8858 0.0000
v 13.1651 -4.8858 0.0000
v 13.1651 -4.6858 0.0000
v 13.9651 -4.5858 0.0000
v 14.2651 -3.7858 0.0000
v 14.1651 -2.4858 0.0000
v 14.3651 -2.0858 0.0000
v 14.3651 -1.3858 0.0000
v 14.1651 -1.1858 0.0000
v 12.1651 -1.1858 0.0000
v 10.8651 -1.4858 0.0000
v 10.5651 -1.2858 0.0000
v 6.7651 -1.3858 0.0000
v 4.7651 -1.1858 0.0000
v 1.3651 -1.1858 0.0000
v 1.1651 -1.7858 0.0000
v 1.1651 -2.2858 0.0000
v 1.4651 -2.5858 0.0000
v 1.3651 -3.3858 0.0000
v 1.1651 -3.3858 0.0000
v 1.1651 -2.9858 0.0000
v 0.9651 -2.7858 0.0000
v 0.9651 -1.7858 0.0000
v 0.5651 -1.3858 0.0000
v -0.2349 -1.4858 0.0000
v -0.2349 -2.6858 0.0000
v -1.3349 -2.5858 0.0000
v -0.9349 -1.1858 0.0000
v -3.3349 -1.0858 0.0000
v -3.5349 -0.6858 0.0000
v -3.6349 0.6142 0.0000
v -4.0349 1.2142 0.0000
v -4.0349 1.8142 0.0000
v -4.2349 1.9142 0.0000
v -4.1349 3.1142 0.0000
v -3.9349 3.2142 0.0000
v -3.9349 4.5142 0.0000
v -4.2349 4.6142 0.0000
v -4.2349 5.8142 0.0000
v -3.9349 6.1142 0.0000
v -3.8349 6.7142 0.0000
v -3.3349 6.8142 0.0000
v -3.3349 7.3142 0.0000
v -3.5349 7.4142 0.0000
v -3.5349 8.0142 0.0000
v -3.3349 8.1142 0.0000
v -3.3349 9.2142 0.0000
v -3.0349 9.2142 0.0000
v -3.1349 7.3142 0.0000
v -2.9349 7.2142 0.0000
v -2.8349 6.6142 0.0000
v -1.6349 6.8142 0.0000
v -1.5349 7.0142 0.0000
v -0.2349 6.7142 0.0000
v -0.1349 4.7142 0.0000
v -0.4349 4.6142 0.0000
v -0.4349 3.7142 0.0000
v -0.6349 3.7142 0.0000
v -0.7349 4.0142 0.0000
v -1.3349 4.0142 0.0000
v -1.4349 3.3142 0.0000
v -1.9349 3.2142 0.0000
v -1.9349 2.2142 0.0000
v -1.0349 1.5142 0.0000
v -0.6349 1.5142 0.0000
v -0.5349 1.9142 0.0000
v -0.2349 1.9142 0.0000
v -0.1349 1.1142 0.0000
v 3.4651 1.3142 0.0000
v 7.3651 1.2142 0.0000
v 7.7651 1.5142 0.0000
v 7.5651 5.0142 0.0000
v 7.6651 5.8142 0.0000
v 7.8651 5.9142 0.0000
v 7.8651 6.6142 0.0000
v 9.7651 6.7142 0.0000
v 10.0651 6.5142 0.0000
v 10.0651 4.9142 0.0000
v 10.3651 4.8142 0.0000
v 9.9651 2.9142 0.0000
v 10.1651 1.2142 0.0000
v 12.4651 1.3142 0.0000
v 14.6651 1.1142 0.0000
v 15.9651 1.4142 0.0000
v 16.0651 1.1142 0.0000
v 17.2651 1.2142 0.0000
v 17.4651 1.0142 0.0000
v 19.7651 0.9142 0.0000
v 19.7651 0.7142 0.0000
v 17.2651 0.6142 0.0000
v 17.1651 0.1142 0.0000
v 16.7651 0.0142 0.0000
v 16.7651 -0.3858 0.0000
v 16.3651 -0.3858 0.0000
v 16.1651 0.7142 0.0000
v 14.7651 0.7142 0.0000
v 14.7651 -1.5858 0.0000
v 14.9651 -1.9858 0.0000
v 15.6651 -1.9858 0.0000
v 15.6651 -2.4858 0.0000
v 15.8651 -2.6858 0.0000
v 16.3651 -2.5858 0.0000
v 16.3651 -0.9858 0.0000
v 19.3651 -0.8858 0.0000
v 19.7651 -0.9858 0.0000
v 19.7651 -1.1858 2.5000
v 16.6651 -1.2858 2.5000
v 16.5651 -4.8858 2.5000
v 16.1651 -5.0858 2.5000
v 16.1651 -5.3858 2.5000
v 14.4651 -5.3858 2.5000
v 14.2651 -4.8858 2.5000
v 13.1651 -4.8858 2.5000
v 13.1651 -4.6858 2.5000
v 13.9651 -4.5858 2.5000
v 14.2651 -3.7858 2.5000
v 14.1651 -2.4858 2.5000
v 14.3651 -2.0858 2.5000
v 14.3651 -1.3858 2.5000
v 14.1651 -1.1858 2.5000
v 12.1651 -1.1858 2.5000
v 10.8651 -1.4858 2.5000
v 10.5651 -1.2858 2.5000
v 6.7651 -1.3858 2.5000
v 4.7651 -1.1858 2.5000
v 1.3651 -1.1858 2.5000
v 1.1651 -1.7858 2.5000
v 1.1651 -2.2858 2.5000
v 1.4651 -2.5858 2.5000
v 1.3651 -3.3858 2.5000
v 1.1651 -3.3858 2.5000
v 1.1651 -2.9858 2.5000
v 0.9651 -2.7858 2.5000
v 0.9651 -1.7858 2.5000
v 0.5651 -1.3858 2.5000
v -0.2349 -1.4858 2.5000
v -0.2349 -2.6858 2.5000
v -1.3349 -2.5858 2.5000
v -0.9349 -1.1858 2.5000
v -3.3349 -1.0858 2.5000
v -3.5349 -0.6858 2.5000
v -3.6349 0.6142 2.5000
v -4.0349 1.2142 2.5000
v -4.0349 1.8142 2.5000
v -4.2349 1.9142 2.5000
v -4.1349 3.1142 2.5000
v -3.9349 3.2142 2.5000
v -3.9349 4.5142 2.5000
v -4.2349 4.6142 2.5000
v -4.2349 5.8142 2.5000
v -3.9349 6.1142 2.5000
v -3.8349 6.7142 2.5000
v -3.3349 6.8142 2.5000
v -3.3349 7.3142 2.5000
v -3.5349 7.4142 2.5000
v -3.5349 8.0142 2.5000
v -3.3349 8.1142 2.5000
v -3.3349 9.2142 2.5000
v -3.0349 9.2142 2.5000
v -3.1349 7.3142 2.5000
v -2.9349 7.2142 2.5000
v -2.8349 6.6142 2.5000
v -1.6349 6.8142 2.5000
v -1.5349 7.0142 2.5000
v -0.2349 6.7142 2.5000
v -0.1349 4.7142 2.5000
v -0.4349 4.6142 2.5000
v -0.4349 3.7142 2.5000
v -0.6349 3.7142 2.5000
v -0.7349 4.0142 2.5000
v -1.3349 4.0142 2.5000
v -1.4349 3.3142 2.5000
v -1.9349 3.2142 2.5000
v -1.9349 2.2142 2.5000
v -1.0349 1.5142 2.5000
v -0.6349 1.5142 2.5000
v -0.5349 1.9142 2.5000
v -0.2349 1.9142 2.5000
v -0.1349 1.1142 2.5000
v 3.4651 1.3142 2.5000
v 7.3651 1.2142 2.5000
v 7.7651 1.5142 2.5000
v 7.5651 5.0142 2.5000
v 7.6651 5.8142 2.5000
v 7.8651 5.9142 2.5000
v 7.8651 6.6142 2.5000
v 9.7651 6.7142 2.5000
v 10.0651 6.5142 2.5000
v 10.0651 4.9142 2.5000
v 10.3651 4.8142 2.5000
v 9.9651 2.9142 2.5000
v 10.1651 1.2142 2.5000
v 12.4651 1.3142 2.5000
v 14.6651 1.1142 2.5000
v 15.9651 1.4142 2.5000
v 16.0651 1.1142 2.5000
v 17.2651 1.2142 2.5000
v 17.4651 1.0142 2.5000
v 19.7651 0.9142 2.5000
v 19.7651 0.7142 2.5000
v 17.2651 0.6142 2.5000
v 17.1651 0.1142 2.5000
v 16.7651 0.0142 2.5000
v 16.7651 -0.3858 2.5000
v 16.3651 -0.3858 2.5000
v 16.1651 0.7142 2.5000
v 14.7651 0.7142 2.5000
v 14.7651 -1.5858 2.5000
v 14.9651 -1.9858 2.5000
v 15.6651 -1.9858 2.5000
v 15.6651 -2.4858 2.5000
v 15.8651 -2.6858 2.5000
v 16.3651 -2.5858 2.5000
v 16.3651 -0.9858 2.5000
v 19.3651 -0.8858 2.5000
v 19.7651 -0.9858 2.5000
f 1 2 6 5
f 2 3 7 6
f 3 4 8 7
f 4 1 5 8
f 9 10 14 13
f 10 11 15 14
f 11 12 16 15
f 12 9 13 16
f 17 18 22 21
f 18 19 23 22
f 19 20 24 23
f 20 17 21 24
f 25 26 30 29
f 26 27 31 30
f 27 28 32 31
f 28 25 29 32
f 33 34 39 38
f 34 35 40 39
f 35 36 41 40
f 36 37 42 41
f 37 33 38 42
f 43 44 155 154
f 44 45 156 155
f 45 46 157 156
f 46 47 158 157
f 47 48 159 158
f 48 49 160 159
f 49 50 161 160
f 50 51 162 161
f 51 52 163 162
f 52 53 164 163
f 53 54 165 164
f 54 55 166 165
f 55 56 167 166
f 56 57 168 167
f 57 58 169 168
f 58 59 170 169
f 59 60 171 170
f 60 61 172 171
f 61 62 173 172
f 62 63 174 173
f 63 64 175 174
f 64 65 176 175
f 65 66 177 176
f 66 67 178 177
f 67 68 179 178
f 68 69 180 179
f 69 70 181 180
f 70 71 182 181
f 71 72 183 182
f 72 73 184 183
f 73 74 185 184
f 74 75 186 185
f 75 76 187 186
f 76 77 188 187
f 77 78 189 188
f 78 79 190 189
f 79 80 191 190
f 80 81 192 191
f 81 82 193 192
f 82 83 194 193
f 83 84 195 194
f 84 85 196 195
f 85 86 197 196
f 86 87 198 197
f 87 88 199 198
f 88 89 200 199
f 89 90 201 200
f 90 91 202 201
f 91 92 203 202
f 92 93 204 203
f 93 94 205 204
f 94 95 206 205
f 95 96 207 206
f 96 97 208 207
f 97 98 209 208
f 98 99 210 209
f 99 100 211 210
f 100 101 212 211
f 101 102 213 212
f 102 103 214 213
f 103 104 215 214
f 104 105 216 215
f 105 106 217 216
f 106 107 218 217
f 107 108 219 218
f 108 109 220 219
f 109 110 221 220
f 110 111 222 221
f 111 112 223 222
f 112 113 224 223
f 113 114 225 224
f 114 115 226 225
f 115 116 227 226
f 116 117 228 227
f 117 118 229 228
f 118 119 230 229
f 119 120 231 230
f 120 121 232 231
f 121 122 233 232
f 122 123 234 233
f 123 124 235 234
f 124 125 236 235
f 125 126 237 236
f 126 127 238 237
f 127 128 239 238
f 128 129 240 239
f 129 130 241 240
f 130 131 242 241
f 131 132 243 242
f 132 133 244 243
f 133 134 245 244
f 134 135 246 245
f 135 136 247 246
f 136 137 248 247
f 137 138 249 248
f 138 139 250 249
f 139 140 251 250
f 140 141 252 251
f 141 142 253 252
f 142 143 254 253
f 143 144 255 254
f 144 145 256 255
f 145 146 257 256
f 146 147 258 257
f 147 148 259 258
f 148 149 260 259
f 149 150 261 260
f 150 151 262 261
f 151 152 263 262
f 152 153 264 263
f 153 43 154 264
